<svg width="889" height="879" viewBox="0 0 889 879" fill="none" xmlns="http://www.w3.org/2000/svg">
<g opacity="0.2">
<path d="M83.3706 400.835C77.2309 386.54 83.9736 370.031 98.4308 363.96C112.888 357.89 129.585 364.557 135.725 378.851C141.864 393.146 135.122 409.655 120.665 415.725C106.207 421.796 89.5103 415.129 83.3706 400.835Z" stroke="#4C535D" stroke-width="1.25" stroke-linecap="round" stroke-linejoin="round"/>
<path d="M84.167 564.212L38.8609 609.017H84.167V564.212Z" stroke="#4C535D" stroke-width="1.25" stroke-linecap="round" stroke-linejoin="round"/>
<path d="M137.82 496.489H244.524C249.039 496.489 252.698 500.107 252.698 504.57V541.57C252.698 546.033 249.039 549.652 244.524 549.652H137.82C133.305 549.652 129.646 546.033 129.646 541.57V504.57C129.646 500.107 133.305 496.489 137.82 496.489Z" stroke="#4C535D" stroke-width="1.25" stroke-linecap="round" stroke-linejoin="round"/>
<path d="M43.8821 311.784V319.793" stroke="#4C535D" stroke-width="1.25" stroke-linecap="round" stroke-linejoin="round"/>
<path d="M39.8321 315.789H47.9236" stroke="#4C535D" stroke-width="1.25" stroke-linecap="round" stroke-linejoin="round"/>
<path d="M22.5791 202.414V210.423" stroke="#4C535D" stroke-width="1.25" stroke-linecap="round" stroke-linejoin="round"/>
<path d="M18.5292 206.418H26.6289" stroke="#4C535D" stroke-width="1.25" stroke-linecap="round" stroke-linejoin="round"/>
<path d="M194.345 443.138V451.147" stroke="#4C535D" stroke-width="1.25" stroke-linecap="round" stroke-linejoin="round"/>
<path d="M190.304 447.143H198.395" stroke="#4C535D" stroke-width="1.25" stroke-linecap="round" stroke-linejoin="round"/>
<path d="M361.502 531.396V539.405" stroke="#4C535D" stroke-width="1.25" stroke-linecap="round" stroke-linejoin="round"/>
<path d="M357.452 535.4H365.552" stroke="#4C535D" stroke-width="1.25" stroke-linecap="round" stroke-linejoin="round"/>
<path d="M382.813 640.531V648.539" stroke="#4C535D" stroke-width="1.25" stroke-linecap="round" stroke-linejoin="round"/>
<path d="M378.764 644.535H386.863" stroke="#4C535D" stroke-width="1.25" stroke-linecap="round" stroke-linejoin="round"/>
<path d="M533.038 772.299V780.308" stroke="#4C535D" stroke-width="1.25" stroke-linecap="round" stroke-linejoin="round"/>
<path d="M528.988 776.303H537.088" stroke="#4C535D" stroke-width="1.25" stroke-linecap="round" stroke-linejoin="round"/>
<path d="M700.046 823.558V831.559" stroke="#4C535D" stroke-width="1.25" stroke-linecap="round" stroke-linejoin="round"/>
<path d="M695.996 827.562H704.088" stroke="#4C535D" stroke-width="1.25" stroke-linecap="round" stroke-linejoin="round"/>
<path d="M135.498 860.321V868.322" stroke="#4C535D" stroke-width="1.25" stroke-linecap="round" stroke-linejoin="round"/>
<path d="M131.449 864.317H139.548" stroke="#4C535D" stroke-width="1.25" stroke-linecap="round" stroke-linejoin="round"/>
<path d="M236.021 809.771V817.779" stroke="#4C535D" stroke-width="1.25" stroke-linecap="round" stroke-linejoin="round"/>
<path d="M231.971 813.775H240.071" stroke="#4C535D" stroke-width="1.25" stroke-linecap="round" stroke-linejoin="round"/>
<path d="M121.241 681.982V689.991" stroke="#4C535D" stroke-width="1.25" stroke-linecap="round" stroke-linejoin="round"/>
<path d="M117.192 685.986H125.292" stroke="#4C535D" stroke-width="1.25" stroke-linecap="round" stroke-linejoin="round"/>
<path d="M277.738 564.57C277.738 566.068 278.965 567.289 280.488 567.289C282.011 567.289 283.237 566.076 283.237 564.57C283.237 563.064 282.011 561.852 280.488 561.852C278.965 561.852 277.738 563.064 277.738 564.57Z" stroke="#4C535D" stroke-width="1.25" stroke-linecap="round" stroke-linejoin="round"/>
<path d="M133.597 597.175C133.597 598.672 134.824 599.893 136.346 599.893C137.869 599.893 139.096 598.68 139.096 597.175C139.096 595.669 137.869 594.456 136.346 594.456C134.824 594.456 133.597 595.669 133.597 597.175Z" stroke="#4C535D" stroke-width="1.25" stroke-linecap="round" stroke-linejoin="round"/>
<path d="M63.4318 485.11C63.4318 486.608 64.6583 487.829 66.1811 487.829C67.704 487.829 68.9304 486.616 68.9304 485.11C68.9304 483.605 67.704 482.392 66.1811 482.392C64.6583 482.392 63.4318 483.605 63.4318 485.11Z" stroke="#4C535D" stroke-width="1.25" stroke-linecap="round" stroke-linejoin="round"/>
<path d="M21.9453 689.779C21.9453 691.277 23.1717 692.497 24.6946 692.497C26.2174 692.497 27.4438 691.285 27.4438 689.779C27.4438 688.273 26.2174 687.061 24.6946 687.061C23.1717 687.061 21.9453 688.273 21.9453 689.779Z" stroke="#4C535D" stroke-width="1.25" stroke-linecap="round" stroke-linejoin="round"/>
<path d="M402.231 814.06C402.231 815.557 403.458 816.778 404.981 816.778C406.503 816.778 407.73 815.565 407.73 814.06C407.73 812.554 406.503 811.341 404.981 811.341C403.458 811.341 402.231 812.554 402.231 814.06Z" stroke="#4C535D" stroke-width="1.25" stroke-linecap="round" stroke-linejoin="round"/>
<path d="M223.345 631.928H233.914V642.378H223.345V631.928Z" stroke="#4C535D" stroke-width="1.25" stroke-linecap="round" stroke-linejoin="round"/>
<path d="M10.5694 540.455H21.1387V550.905H10.5694V540.455Z" stroke="#4C535D" stroke-width="1.25" stroke-linecap="round" stroke-linejoin="round"/>
<path d="M316.83 591.388H342.619V616.887H316.83V591.388Z" stroke="#4C535D" stroke-width="1.25" stroke-linecap="round" stroke-linejoin="round"/>
<path d="M420.869 725.249C417.312 710.123 426.83 695.009 442.129 691.491C457.428 687.974 472.714 697.385 476.271 712.512C479.828 727.639 470.31 742.752 455.011 746.27C439.712 749.787 424.427 740.376 420.869 725.249Z" stroke="#4C535D" stroke-width="1.25" stroke-linecap="round" stroke-linejoin="round"/>
<path d="M288.003 767.4V817.462H361.469V744.822H310.788V767.4H288.003Z" stroke="#4C535D" stroke-width="1.25" stroke-linecap="round" stroke-linejoin="round"/>
<path d="M288.003 744.822H310.788V767.4H288.003V744.822Z" stroke="#4C535D" stroke-width="1.25" stroke-linecap="round" stroke-linejoin="round"/>
<path d="M200.173 710.476V767.4H288.003V744.822H310.788V694.662H216.167V710.476H200.173Z" stroke="#4C535D" stroke-width="1.25" stroke-linecap="round" stroke-linejoin="round"/>
<path d="M200.173 710.476H216.167V694.662L200.173 710.476Z" stroke="#4C535D" stroke-width="1.25" stroke-linecap="round" stroke-linejoin="round"/>
<path d="M66.9713 751.822V817.682H133.572L66.9713 751.822Z" stroke="#4C535D" stroke-width="1.25" stroke-linecap="round" stroke-linejoin="round"/>
<path d="M66.9713 751.822L133.572 817.682V751.822H66.9713Z" stroke="#4C535D" stroke-width="1.25" stroke-linecap="round" stroke-linejoin="round"/>
<path d="M479.682 804.773H586.386C590.901 804.773 594.56 808.392 594.56 812.855V849.854C594.56 854.318 590.901 857.936 586.386 857.936H479.682C475.167 857.936 471.508 854.318 471.508 849.854V812.855C471.508 808.392 475.167 804.773 479.682 804.773Z" stroke="#4C535D" stroke-width="1.25" stroke-linecap="round" stroke-linejoin="round"/>
</g>
</svg>
